<svg xmlns="http://www.w3.org/2000/svg" width="900" height="520" viewBox="0 0 900 520">
<rect width="100%" height="100%" fill="white"/>
<text x="450" y="30" text-anchor="middle" font-size="22" font-family="Arial">Score Distribution by Subject (Box Plot)</text>
<line x1="90" y1="60" x2="90" y2="450" stroke="black"/>
<line x1="90" y1="450" x2="840" y2="450" stroke="black"/>
<line x1="84" y1="450.0" x2="90" y2="450.0" stroke="black"/>
<text x="78" y="454.0" text-anchor="end" font-size="12" font-family="Arial">30</text>
<line x1="84" y1="394.2857142857143" x2="90" y2="394.2857142857143" stroke="black"/>
<text x="78" y="398.2857142857143" text-anchor="end" font-size="12" font-family="Arial">40</text>
<line x1="84" y1="338.57142857142856" x2="90" y2="338.57142857142856" stroke="black"/>
<text x="78" y="342.57142857142856" text-anchor="end" font-size="12" font-family="Arial">50</text>
<line x1="84" y1="282.85714285714283" x2="90" y2="282.85714285714283" stroke="black"/>
<text x="78" y="286.85714285714283" text-anchor="end" font-size="12" font-family="Arial">60</text>
<line x1="84" y1="227.14285714285714" x2="90" y2="227.14285714285714" stroke="black"/>
<text x="78" y="231.14285714285714" text-anchor="end" font-size="12" font-family="Arial">70</text>
<line x1="84" y1="171.42857142857142" x2="90" y2="171.42857142857142" stroke="black"/>
<text x="78" y="175.42857142857142" text-anchor="end" font-size="12" font-family="Arial">80</text>
<line x1="84" y1="115.71428571428571" x2="90" y2="115.71428571428571" stroke="black"/>
<text x="78" y="119.71428571428571" text-anchor="end" font-size="12" font-family="Arial">90</text>
<line x1="84" y1="60.0" x2="90" y2="60.0" stroke="black"/>
<text x="78" y="64.0" text-anchor="end" font-size="12" font-family="Arial">100</text>
<line x1="183.75" y1="60.0" x2="183.75" y2="180.20357142857137" stroke="black"/>
<line x1="183.75" y1="294.5571428571428" x2="183.75" y2="414.34285714285716" stroke="black"/>
<rect x="143.75" y="180.20357142857137" width="80" height="114.35357142857146" fill="#6baed6" stroke="black"/>
<line x1="143.75" y1="236.33571428571432" x2="223.75" y2="236.33571428571432" stroke="black" stroke-width="2"/>
<line x1="163.75" y1="60.0" x2="203.75" y2="60.0" stroke="black"/>
<line x1="163.75" y1="414.34285714285716" x2="203.75" y2="414.34285714285716" stroke="black"/>
<text x="183.75" y="480" text-anchor="middle" font-size="13" font-family="Arial">Math</text>
<line x1="371.25" y1="60.0" x2="371.25" y2="192.8785714285715" stroke="black"/>
<line x1="371.25" y1="293.5821428571428" x2="371.25" y2="422.14285714285717" stroke="black"/>
<rect x="331.25" y="192.8785714285715" width="80" height="100.70357142857131" fill="#9ecae1" stroke="black"/>
<line x1="331.25" y1="240.23571428571427" x2="411.25" y2="240.23571428571427" stroke="black" stroke-width="2"/>
<line x1="351.25" y1="60.0" x2="391.25" y2="60.0" stroke="black"/>
<line x1="351.25" y1="422.14285714285717" x2="391.25" y2="422.14285714285717" stroke="black"/>
<text x="371.25" y="480" text-anchor="middle" font-size="13" font-family="Arial">Science</text>
<line x1="558.75" y1="60.0" x2="558.75" y2="185.63571428571427" stroke="black"/>
<line x1="558.75" y1="292.1892857142857" x2="558.75" y2="422.14285714285717" stroke="black"/>
<rect x="518.75" y="185.63571428571427" width="80" height="106.55357142857142" fill="#74c476" stroke="black"/>
<line x1="518.75" y1="241.9071428571429" x2="598.75" y2="241.9071428571429" stroke="black" stroke-width="2"/>
<line x1="538.75" y1="60.0" x2="578.75" y2="60.0" stroke="black"/>
<line x1="538.75" y1="422.14285714285717" x2="578.75" y2="422.14285714285717" stroke="black"/>
<text x="558.75" y="480" text-anchor="middle" font-size="13" font-family="Arial">English</text>
<line x1="746.25" y1="83.95714285714284" x2="746.25" y2="185.91428571428568" stroke="black"/>
<line x1="746.25" y1="303.88928571428573" x2="746.25" y2="422.14285714285717" stroke="black"/>
<rect x="706.25" y="185.91428571428568" width="80" height="117.97500000000005" fill="#fd8d3c" stroke="black"/>
<line x1="706.25" y1="245.25" x2="786.25" y2="245.25" stroke="black" stroke-width="2"/>
<line x1="726.25" y1="83.95714285714284" x2="766.25" y2="83.95714285714284" stroke="black"/>
<line x1="726.25" y1="422.14285714285717" x2="766.25" y2="422.14285714285717" stroke="black"/>
<text x="746.25" y="480" text-anchor="middle" font-size="13" font-family="Arial">History</text>
</svg>