<svg xmlns="http://www.w3.org/2000/svg" width="760" height="760" viewBox="0 0 760 760">
<rect width="100%" height="100%" fill="white"/>
<text x="380" y="45" text-anchor="middle" font-size="22" font-family="Arial">Correlation Heatmap</text>
<text x="140" y="169.0" text-anchor="end" font-size="13" font-family="Arial">Attendance</text>
<text x="215.0" y="95" text-anchor="middle" font-size="13" font-family="Arial">Attendance</text>
<rect x="170" y="120" width="90" height="90" fill="rgb(0,80,254)" stroke="white"/>
<text x="215.0" y="170.0" text-anchor="middle" font-size="13" fill="black" font-family="Arial">1.00</text>
<rect x="260" y="120" width="90" height="90" fill="rgb(36,114,217)" stroke="white"/>
<text x="305.0" y="170.0" text-anchor="middle" font-size="13" fill="black" font-family="Arial">0.72</text>
<rect x="350" y="120" width="90" height="90" fill="rgb(39,117,214)" stroke="white"/>
<text x="395.0" y="170.0" text-anchor="middle" font-size="13" fill="black" font-family="Arial">0.69</text>
<rect x="440" y="120" width="90" height="90" fill="rgb(48,125,205)" stroke="white"/>
<text x="485.0" y="170.0" text-anchor="middle" font-size="13" fill="black" font-family="Arial">0.62</text>
<rect x="530" y="120" width="90" height="90" fill="rgb(30,109,223)" stroke="white"/>
<text x="575.0" y="170.0" text-anchor="middle" font-size="13" fill="black" font-family="Arial">0.76</text>
<text x="140" y="259.0" text-anchor="end" font-size="13" font-family="Arial">Math</text>
<text x="305.0" y="95" text-anchor="middle" font-size="13" font-family="Arial">Math</text>
<rect x="170" y="210" width="90" height="90" fill="rgb(36,114,217)" stroke="white"/>
<text x="215.0" y="260.0" text-anchor="middle" font-size="13" fill="black" font-family="Arial">0.72</text>
<rect x="260" y="210" width="90" height="90" fill="rgb(0,80,254)" stroke="white"/>
<text x="305.0" y="260.0" text-anchor="middle" font-size="13" fill="black" font-family="Arial">1.00</text>
<rect x="350" y="210" width="90" height="90" fill="rgb(70,146,183)" stroke="white"/>
<text x="395.0" y="260.0" text-anchor="middle" font-size="13" fill="black" font-family="Arial">0.45</text>
<rect x="440" y="210" width="90" height="90" fill="rgb(62,138,191)" stroke="white"/>
<text x="485.0" y="260.0" text-anchor="middle" font-size="13" fill="black" font-family="Arial">0.51</text>
<rect x="530" y="210" width="90" height="90" fill="rgb(58,135,195)" stroke="white"/>
<text x="575.0" y="260.0" text-anchor="middle" font-size="13" fill="black" font-family="Arial">0.54</text>
<text x="140" y="349.0" text-anchor="end" font-size="13" font-family="Arial">Science</text>
<text x="395.0" y="95" text-anchor="middle" font-size="13" font-family="Arial">Science</text>
<rect x="170" y="300" width="90" height="90" fill="rgb(39,117,214)" stroke="white"/>
<text x="215.0" y="350.0" text-anchor="middle" font-size="13" fill="black" font-family="Arial">0.69</text>
<rect x="260" y="300" width="90" height="90" fill="rgb(70,146,183)" stroke="white"/>
<text x="305.0" y="350.0" text-anchor="middle" font-size="13" fill="black" font-family="Arial">0.45</text>
<rect x="350" y="300" width="90" height="90" fill="rgb(0,80,253)" stroke="white"/>
<text x="395.0" y="350.0" text-anchor="middle" font-size="13" fill="black" font-family="Arial">1.00</text>
<rect x="440" y="300" width="90" height="90" fill="rgb(85,160,168)" stroke="white"/>
<text x="485.0" y="350.0" text-anchor="middle" font-size="13" fill="black" font-family="Arial">0.33</text>
<rect x="530" y="300" width="90" height="90" fill="rgb(66,142,187)" stroke="white"/>
<text x="575.0" y="350.0" text-anchor="middle" font-size="13" fill="black" font-family="Arial">0.48</text>
<text x="140" y="439.0" text-anchor="end" font-size="13" font-family="Arial">English</text>
<text x="485.0" y="95" text-anchor="middle" font-size="13" font-family="Arial">English</text>
<rect x="170" y="390" width="90" height="90" fill="rgb(48,125,205)" stroke="white"/>
<text x="215.0" y="440.0" text-anchor="middle" font-size="13" fill="black" font-family="Arial">0.62</text>
<rect x="260" y="390" width="90" height="90" fill="rgb(62,138,191)" stroke="white"/>
<text x="305.0" y="440.0" text-anchor="middle" font-size="13" fill="black" font-family="Arial">0.51</text>
<rect x="350" y="390" width="90" height="90" fill="rgb(85,160,168)" stroke="white"/>
<text x="395.0" y="440.0" text-anchor="middle" font-size="13" fill="black" font-family="Arial">0.33</text>
<rect x="440" y="390" width="90" height="90" fill="rgb(0,79,254)" stroke="white"/>
<text x="485.0" y="440.0" text-anchor="middle" font-size="13" fill="black" font-family="Arial">1.00</text>
<rect x="530" y="390" width="90" height="90" fill="rgb(70,146,183)" stroke="white"/>
<text x="575.0" y="440.0" text-anchor="middle" font-size="13" fill="black" font-family="Arial">0.45</text>
<text x="140" y="529.0" text-anchor="end" font-size="13" font-family="Arial">History</text>
<text x="575.0" y="95" text-anchor="middle" font-size="13" font-family="Arial">History</text>
<rect x="170" y="480" width="90" height="90" fill="rgb(30,109,223)" stroke="white"/>
<text x="215.0" y="530.0" text-anchor="middle" font-size="13" fill="black" font-family="Arial">0.76</text>
<rect x="260" y="480" width="90" height="90" fill="rgb(58,135,195)" stroke="white"/>
<text x="305.0" y="530.0" text-anchor="middle" font-size="13" fill="black" font-family="Arial">0.54</text>
<rect x="350" y="480" width="90" height="90" fill="rgb(66,142,187)" stroke="white"/>
<text x="395.0" y="530.0" text-anchor="middle" font-size="13" fill="black" font-family="Arial">0.48</text>
<rect x="440" y="480" width="90" height="90" fill="rgb(70,146,183)" stroke="white"/>
<text x="485.0" y="530.0" text-anchor="middle" font-size="13" fill="black" font-family="Arial">0.45</text>
<rect x="530" y="480" width="90" height="90" fill="rgb(0,79,254)" stroke="white"/>
<text x="575.0" y="530.0" text-anchor="middle" font-size="13" fill="black" font-family="Arial">1.00</text>
</svg>